# xmcd CD database file
#
# Track frame offsets:
#	150
#	15532
#	32722
#	53055
#	70665
#	87357
#	100545
#	120585
#	133320
#	146445
#
# Disc length: 2218 seconds
#
# Revision: 2
# Processed by: cddbd v1.4PL0 Copyright (c) Steve Scherf et al.
# Submitted via: CDex 1.50
#
DISCID=7e08a80a
DTITLE=Hal Ketchum - Every Little Word
DYEAR=1994
DGENRE=Country
TTITLE0=(Tonight We Just Might) Fall In Love Again
TTITLE1=Every Little Word
TTITLE2=Swing Low
TTITLE3=Another Day Gone
TTITLE4=That's What I Get For Losin' You
TTITLE5=Stay Forever
TTITLE6=Walk Away
TTITLE7=Veil Of Tears
TTITLE8=No Easy Road
TTITLE9=Drive On
EXTD=YEAR: 1994
EXTT0=
EXTT1=
EXTT2=
EXTT3=
EXTT4=
EXTT5=
EXTT6=
EXTT7=
EXTT8=
EXTT9=
PLAYORDER=
